# xmcd
#
# Track frame offsets:
#	150
#	50492
#	69085
#	87235
#	100435
#	124135
#	136692
#	154919
#	170027
#	185288
#	199995
#	213064
#
# Disc length: 3072 seconds
#
# Revision: 1
# Processed by: cddbd v1.5.2PL0 Copyright (c) Steve Scherf et al.
# Submitted via: audiograbber 1.83.01
#
DISCID=a40bfe0c
DTITLE=Sawyer - No Time To Sleep
DYEAR=2018
DGENRE=Country Western
TTITLE0=01_Eastwood - Brad Paisley
TTITLE1=02_Ghostriders In The Sky - Stan Jones
TTITLE2=03_Who Wodn't Wanna Be Me - Monty Powell - Keith Urban
TTITLE3=04_Here Comes The Rain - Kostas - Roul Marlow
TTITLE4=05_Need You Now - Hillary Scott - Charles Kelly - Dave Haywood - Josh K
TTITLE4=ear
TTITLE5=06_Six Days On The Road - Earl Green - Carl Montgomery
TTITLE6=07_Jolene - Dolly Parton
TTITLE7=08_Don't Let Go - Jesse Stone
TTITLE8=09_He Thinks He'll Keep Her - Mary Chapin Carpenter - Don Schlitz
TTITLE9=10_How Do You Like Me Now ?! - Chuck Cannon - Toby Keith
TTITLE10=11_Lovin' All Night - Rodney Crowell
TTITLE11=12_Bartender - Dave Haywood - Charles Kelley - Hillary SCott - Rodney 
TTITLE11=Clawson
EXTD=13_Jump Right In - Zac Brown - Wyatt Durette - Jason Mraz\n14_ No Time To 
EXTD=Sleep - Tina Dico
EXTT0=
EXTT1=
EXTT2=
EXTT3=
EXTT4=
EXTT5=
EXTT6=
EXTT7=
EXTT8=
EXTT9=
EXTT10=
EXTT11=
PLAYORDER=
